<svg xmlns="http://www.w3.org/2000/svg" version="1.1" xmlns:xlink="http://www.w3.org/1999/xlink" xmlns:svgjs="http://svgjs.dev/svgjs" width="1440" height="560" preserveAspectRatio="none" viewBox="0 0 1440 560"><g mask="url(&quot;#SvgjsMask1029&quot;)" fill="none"><rect width="1440" height="560" x="0" y="0" fill="rgba(10, 57, 92, 1)"></rect><path d="M-101.32 368.72L-101.32 368.72" stroke="rgba(170, 31, 31, 1)" stroke-width="1.5"></path><path d="M-101.32 368.72L-96.25 530.12" stroke="rgba(170, 31, 31, 1)" stroke-width="1.5"></path><path d="M-101.32 368.72L80.74 372.5" stroke="rgba(170, 31, 31, 1)" stroke-width="1.5"></path><path d="M-101.32 368.72L92.38 503.59" stroke="rgba(170, 31, 31, 1)" stroke-width="1.5"></path><path d="M-101.32 368.72L-78.09 666.1" stroke="rgba(170, 31, 31, 1)" stroke-width="1.5"></path><path d="M-101.32 368.72L223.52 343.33" stroke="rgba(170, 31, 31, 1)" stroke-width="1.5"></path><path d="M-101.32 368.72L204.01 525.49" stroke="rgba(170, 31, 31, 1)" stroke-width="1.5"></path><path d="M-96.25 530.12L-96.25 530.12" stroke="rgba(170, 31, 31, 1)" stroke-width="1.5"></path><path d="M-96.25 530.12L-78.09 666.1" stroke="rgba(170, 31, 31, 1)" stroke-width="1.5"></path><path d="M-78.09 666.1L-78.09 666.1" stroke="rgba(170, 31, 31, 1)" stroke-width="1.5"></path><path d="M-78.09 666.1L87.95 698.8" stroke="rgba(170, 31, 31, 1)" stroke-width="1.5"></path><path d="M-78.09 666.1L92.38 503.59" stroke="rgba(170, 31, 31, 1)" stroke-width="1.5"></path><path d="M80.74 372.5L80.74 372.5" stroke="rgba(170, 31, 31, 1)" stroke-width="1.5"></path><path d="M80.74 372.5L92.38 503.59" stroke="rgba(170, 31, 31, 1)" stroke-width="1.5"></path><path d="M80.74 372.5L223.52 343.33" stroke="rgba(170, 31, 31, 1)" stroke-width="1.5"></path><path d="M92.38 503.59L92.38 503.59" stroke="rgba(170, 31, 31, 1)" stroke-width="1.5"></path><path d="M92.38 503.59L204.01 525.49" stroke="rgba(170, 31, 31, 1)" stroke-width="1.5"></path><path d="M92.38 503.59L-96.25 530.12" stroke="rgba(170, 31, 31, 1)" stroke-width="1.5"></path><path d="M92.38 503.59L87.95 698.8" stroke="rgba(170, 31, 31, 1)" stroke-width="1.5"></path><path d="M92.38 503.59L237.17 646.13" stroke="rgba(170, 31, 31, 1)" stroke-width="1.5"></path><path d="M87.95 698.8L87.95 698.8" stroke="rgba(170, 31, 31, 1)" stroke-width="1.5"></path><path d="M87.95 698.8L237.17 646.13" stroke="rgba(170, 31, 31, 1)" stroke-width="1.5"></path><path d="M223.52 343.33L223.52 343.33" stroke="rgba(170, 31, 31, 1)" stroke-width="1.5"></path><path d="M223.52 343.33L204.01 525.49" stroke="rgba(170, 31, 31, 1)" stroke-width="1.5"></path><path d="M223.52 343.33L412.19 401.24" stroke="rgba(170, 31, 31, 1)" stroke-width="1.5"></path><path d="M223.52 343.33L92.38 503.59" stroke="rgba(170, 31, 31, 1)" stroke-width="1.5"></path><path d="M223.52 343.33L362.05 521.81" stroke="rgba(170, 31, 31, 1)" stroke-width="1.5"></path><path d="M204.01 525.49L204.01 525.49" stroke="rgba(170, 31, 31, 1)" stroke-width="1.5"></path><path d="M204.01 525.49L237.17 646.13" stroke="rgba(170, 31, 31, 1)" stroke-width="1.5"></path><path d="M204.01 525.49L362.05 521.81" stroke="rgba(170, 31, 31, 1)" stroke-width="1.5"></path><path d="M204.01 525.49L355.21 649.51" stroke="rgba(170, 31, 31, 1)" stroke-width="1.5"></path><path d="M237.17 646.13L237.17 646.13" stroke="rgba(170, 31, 31, 1)" stroke-width="1.5"></path><path d="M237.17 646.13L355.21 649.51" stroke="rgba(170, 31, 31, 1)" stroke-width="1.5"></path><path d="M412.19 401.24L412.19 401.24" stroke="rgba(170, 31, 31, 1)" stroke-width="1.5"></path><path d="M412.19 401.24L528.56 391.21" stroke="rgba(170, 31, 31, 1)" stroke-width="1.5"></path><path d="M412.19 401.24L362.05 521.81" stroke="rgba(170, 31, 31, 1)" stroke-width="1.5"></path><path d="M412.19 401.24L508.57 505.12" stroke="rgba(170, 31, 31, 1)" stroke-width="1.5"></path><path d="M412.19 401.24L204.01 525.49" stroke="rgba(170, 31, 31, 1)" stroke-width="1.5"></path><path d="M362.05 521.81L362.05 521.81" stroke="rgba(170, 31, 31, 1)" stroke-width="1.5"></path><path d="M362.05 521.81L355.21 649.51" stroke="rgba(170, 31, 31, 1)" stroke-width="1.5"></path><path d="M362.05 521.81L508.57 505.12" stroke="rgba(170, 31, 31, 1)" stroke-width="1.5"></path><path d="M362.05 521.81L237.17 646.13" stroke="rgba(170, 31, 31, 1)" stroke-width="1.5"></path><path d="M362.05 521.81L528.56 391.21" stroke="rgba(170, 31, 31, 1)" stroke-width="1.5"></path><path d="M355.21 649.51L355.21 649.51" stroke="rgba(170, 31, 31, 1)" stroke-width="1.5"></path><path d="M355.21 649.51L488.72 696.26" stroke="rgba(170, 31, 31, 1)" stroke-width="1.5"></path><path d="M355.21 649.51L508.57 505.12" stroke="rgba(170, 31, 31, 1)" stroke-width="1.5"></path><path d="M528.56 391.21L528.56 391.21" stroke="rgba(170, 31, 31, 1)" stroke-width="1.5"></path><path d="M528.56 391.21L508.57 505.12" stroke="rgba(170, 31, 31, 1)" stroke-width="1.5"></path><path d="M508.57 505.12L508.57 505.12" stroke="rgba(170, 31, 31, 1)" stroke-width="1.5"></path><path d="M508.57 505.12L641.29 500.84" stroke="rgba(170, 31, 31, 1)" stroke-width="1.5"></path><path d="M488.72 696.26L488.72 696.26" stroke="rgba(170, 31, 31, 1)" stroke-width="1.5"></path><path d="M488.72 696.26L508.57 505.12" stroke="rgba(170, 31, 31, 1)" stroke-width="1.5"></path><path d="M488.72 696.26L690.37 711.4" stroke="rgba(170, 31, 31, 1)" stroke-width="1.5"></path><path d="M488.72 696.26L362.05 521.81" stroke="rgba(170, 31, 31, 1)" stroke-width="1.5"></path><path d="M488.72 696.26L641.29 500.84" stroke="rgba(170, 31, 31, 1)" stroke-width="1.5"></path><path d="M688.7 239.02L688.7 239.02" stroke="rgba(170, 31, 31, 1)" stroke-width="1.5"></path><path d="M688.7 239.02L843.88 200.6" stroke="rgba(170, 31, 31, 1)" stroke-width="1.5"></path><path d="M688.7 239.02L669.26 400.05" stroke="rgba(170, 31, 31, 1)" stroke-width="1.5"></path><path d="M669.26 400.05L669.26 400.05" stroke="rgba(170, 31, 31, 1)" stroke-width="1.5"></path><path d="M669.26 400.05L641.29 500.84" stroke="rgba(170, 31, 31, 1)" stroke-width="1.5"></path><path d="M669.26 400.05L528.56 391.21" stroke="rgba(170, 31, 31, 1)" stroke-width="1.5"></path><path d="M669.26 400.05L797.73 487.91" stroke="rgba(170, 31, 31, 1)" stroke-width="1.5"></path><path d="M641.29 500.84L641.29 500.84" stroke="rgba(170, 31, 31, 1)" stroke-width="1.5"></path><path d="M641.29 500.84L797.73 487.91" stroke="rgba(170, 31, 31, 1)" stroke-width="1.5"></path><path d="M690.37 711.4L690.37 711.4" stroke="rgba(170, 31, 31, 1)" stroke-width="1.5"></path><path d="M690.37 711.4L817.01 659.51" stroke="rgba(170, 31, 31, 1)" stroke-width="1.5"></path><path d="M690.37 711.4L641.29 500.84" stroke="rgba(170, 31, 31, 1)" stroke-width="1.5"></path><path d="M690.37 711.4L797.73 487.91" stroke="rgba(170, 31, 31, 1)" stroke-width="1.5"></path><path d="M690.37 711.4L951.72 712.23" stroke="rgba(170, 31, 31, 1)" stroke-width="1.5"></path><path d="M854.59 70.87L854.59 70.87" stroke="rgba(170, 31, 31, 1)" stroke-width="1.5"></path><path d="M854.59 70.87L962.66 54.84" stroke="rgba(170, 31, 31, 1)" stroke-width="1.5"></path><path d="M854.59 70.87L843.88 200.6" stroke="rgba(170, 31, 31, 1)" stroke-width="1.5"></path><path d="M843.88 200.6L843.88 200.6" stroke="rgba(170, 31, 31, 1)" stroke-width="1.5"></path><path d="M843.88 200.6L953.74 255.73" stroke="rgba(170, 31, 31, 1)" stroke-width="1.5"></path><path d="M846.8 350.86L846.8 350.86" stroke="rgba(170, 31, 31, 1)" stroke-width="1.5"></path><path d="M846.8 350.86L955.63 389.44" stroke="rgba(170, 31, 31, 1)" stroke-width="1.5"></path><path d="M846.8 350.86L953.74 255.73" stroke="rgba(170, 31, 31, 1)" stroke-width="1.5"></path><path d="M846.8 350.86L797.73 487.91" stroke="rgba(170, 31, 31, 1)" stroke-width="1.5"></path><path d="M846.8 350.86L843.88 200.6" stroke="rgba(170, 31, 31, 1)" stroke-width="1.5"></path><path d="M797.73 487.91L797.73 487.91" stroke="rgba(170, 31, 31, 1)" stroke-width="1.5"></path><path d="M797.73 487.91L944.95 502.29" stroke="rgba(170, 31, 31, 1)" stroke-width="1.5"></path><path d="M817.01 659.51L817.01 659.51" stroke="rgba(170, 31, 31, 1)" stroke-width="1.5"></path><path d="M817.01 659.51L951.72 712.23" stroke="rgba(170, 31, 31, 1)" stroke-width="1.5"></path><path d="M817.01 659.51L797.73 487.91" stroke="rgba(170, 31, 31, 1)" stroke-width="1.5"></path><path d="M817.01 659.51L944.95 502.29" stroke="rgba(170, 31, 31, 1)" stroke-width="1.5"></path><path d="M817.01 659.51L641.29 500.84" stroke="rgba(170, 31, 31, 1)" stroke-width="1.5"></path><path d="M951.19 -63.75L951.19 -63.75" stroke="rgba(170, 31, 31, 1)" stroke-width="1.5"></path><path d="M951.19 -63.75L962.66 54.84" stroke="rgba(170, 31, 31, 1)" stroke-width="1.5"></path><path d="M951.19 -63.75L1091.78 -98.95" stroke="rgba(170, 31, 31, 1)" stroke-width="1.5"></path><path d="M951.19 -63.75L854.59 70.87" stroke="rgba(170, 31, 31, 1)" stroke-width="1.5"></path><path d="M951.19 -63.75L1150.39 77.92" stroke="rgba(170, 31, 31, 1)" stroke-width="1.5"></path><path d="M951.19 -63.75L843.88 200.6" stroke="rgba(170, 31, 31, 1)" stroke-width="1.5"></path><path d="M951.19 -63.75L953.74 255.73" stroke="rgba(170, 31, 31, 1)" stroke-width="1.5"></path><path d="M962.66 54.84L962.66 54.84" stroke="rgba(170, 31, 31, 1)" stroke-width="1.5"></path><path d="M962.66 54.84L843.88 200.6" stroke="rgba(170, 31, 31, 1)" stroke-width="1.5"></path><path d="M962.66 54.84L1150.39 77.92" stroke="rgba(170, 31, 31, 1)" stroke-width="1.5"></path><path d="M953.74 255.73L953.74 255.73" stroke="rgba(170, 31, 31, 1)" stroke-width="1.5"></path><path d="M953.74 255.73L955.63 389.44" stroke="rgba(170, 31, 31, 1)" stroke-width="1.5"></path><path d="M953.74 255.73L1139.07 257.65" stroke="rgba(170, 31, 31, 1)" stroke-width="1.5"></path><path d="M953.74 255.73L1094.16 386.79" stroke="rgba(170, 31, 31, 1)" stroke-width="1.5"></path><path d="M955.63 389.44L955.63 389.44" stroke="rgba(170, 31, 31, 1)" stroke-width="1.5"></path><path d="M955.63 389.44L944.95 502.29" stroke="rgba(170, 31, 31, 1)" stroke-width="1.5"></path><path d="M955.63 389.44L1094.16 386.79" stroke="rgba(170, 31, 31, 1)" stroke-width="1.5"></path><path d="M944.95 502.29L944.95 502.29" stroke="rgba(170, 31, 31, 1)" stroke-width="1.5"></path><path d="M944.95 502.29L846.8 350.86" stroke="rgba(170, 31, 31, 1)" stroke-width="1.5"></path><path d="M944.95 502.29L1094.16 386.79" stroke="rgba(170, 31, 31, 1)" stroke-width="1.5"></path><path d="M944.95 502.29L1140.5 555.08" stroke="rgba(170, 31, 31, 1)" stroke-width="1.5"></path><path d="M951.72 712.23L951.72 712.23" stroke="rgba(170, 31, 31, 1)" stroke-width="1.5"></path><path d="M951.72 712.23L1112.71 692.2" stroke="rgba(170, 31, 31, 1)" stroke-width="1.5"></path><path d="M951.72 712.23L944.95 502.29" stroke="rgba(170, 31, 31, 1)" stroke-width="1.5"></path><path d="M951.72 712.23L1140.5 555.08" stroke="rgba(170, 31, 31, 1)" stroke-width="1.5"></path><path d="M1091.78 -98.95L1091.78 -98.95" stroke="rgba(170, 31, 31, 1)" stroke-width="1.5"></path><path d="M1091.78 -98.95L1150.39 77.92" stroke="rgba(170, 31, 31, 1)" stroke-width="1.5"></path><path d="M1091.78 -98.95L962.66 54.84" stroke="rgba(170, 31, 31, 1)" stroke-width="1.5"></path><path d="M1091.78 -98.95L1250.53 70.29" stroke="rgba(170, 31, 31, 1)" stroke-width="1.5"></path><path d="M1091.78 -98.95L854.59 70.87" stroke="rgba(170, 31, 31, 1)" stroke-width="1.5"></path><path d="M1150.39 77.92L1150.39 77.92" stroke="rgba(170, 31, 31, 1)" stroke-width="1.5"></path><path d="M1150.39 77.92L1250.53 70.29" stroke="rgba(170, 31, 31, 1)" stroke-width="1.5"></path><path d="M1150.39 77.92L1139.07 257.65" stroke="rgba(170, 31, 31, 1)" stroke-width="1.5"></path><path d="M1139.07 257.65L1139.07 257.65" stroke="rgba(170, 31, 31, 1)" stroke-width="1.5"></path><path d="M1139.07 257.65L1094.16 386.79" stroke="rgba(170, 31, 31, 1)" stroke-width="1.5"></path><path d="M1139.07 257.65L1250.22 392.25" stroke="rgba(170, 31, 31, 1)" stroke-width="1.5"></path><path d="M1094.16 386.79L1094.16 386.79" stroke="rgba(170, 31, 31, 1)" stroke-width="1.5"></path><path d="M1094.16 386.79L1250.22 392.25" stroke="rgba(170, 31, 31, 1)" stroke-width="1.5"></path><path d="M1094.16 386.79L1140.5 555.08" stroke="rgba(170, 31, 31, 1)" stroke-width="1.5"></path><path d="M1140.5 555.08L1140.5 555.08" stroke="rgba(170, 31, 31, 1)" stroke-width="1.5"></path><path d="M1140.5 555.08L1112.71 692.2" stroke="rgba(170, 31, 31, 1)" stroke-width="1.5"></path><path d="M1140.5 555.08L1296.51 560.77" stroke="rgba(170, 31, 31, 1)" stroke-width="1.5"></path><path d="M1112.71 692.2L1112.71 692.2" stroke="rgba(170, 31, 31, 1)" stroke-width="1.5"></path><path d="M1112.71 692.2L1309.48 675.7" stroke="rgba(170, 31, 31, 1)" stroke-width="1.5"></path><path d="M1112.71 692.2L1296.51 560.77" stroke="rgba(170, 31, 31, 1)" stroke-width="1.5"></path><path d="M1112.71 692.2L944.95 502.29" stroke="rgba(170, 31, 31, 1)" stroke-width="1.5"></path><path d="M1112.71 692.2L817.01 659.51" stroke="rgba(170, 31, 31, 1)" stroke-width="1.5"></path><path d="M1250.53 70.29L1250.53 70.29" stroke="rgba(170, 31, 31, 1)" stroke-width="1.5"></path><path d="M1250.53 70.29L1389.15 102.11" stroke="rgba(170, 31, 31, 1)" stroke-width="1.5"></path><path d="M1250.53 70.29L1139.07 257.65" stroke="rgba(170, 31, 31, 1)" stroke-width="1.5"></path><path d="M1250.22 392.25L1250.22 392.25" stroke="rgba(170, 31, 31, 1)" stroke-width="1.5"></path><path d="M1250.22 392.25L1387.89 405.36" stroke="rgba(170, 31, 31, 1)" stroke-width="1.5"></path><path d="M1250.22 392.25L1296.51 560.77" stroke="rgba(170, 31, 31, 1)" stroke-width="1.5"></path><path d="M1250.22 392.25L1140.5 555.08" stroke="rgba(170, 31, 31, 1)" stroke-width="1.5"></path><path d="M1296.51 560.77L1296.51 560.77" stroke="rgba(170, 31, 31, 1)" stroke-width="1.5"></path><path d="M1296.51 560.77L1309.48 675.7" stroke="rgba(170, 31, 31, 1)" stroke-width="1.5"></path><path d="M1296.51 560.77L1428.8 521.27" stroke="rgba(170, 31, 31, 1)" stroke-width="1.5"></path><path d="M1309.48 675.7L1309.48 675.7" stroke="rgba(170, 31, 31, 1)" stroke-width="1.5"></path><path d="M1309.48 675.7L1456.37 690.84" stroke="rgba(170, 31, 31, 1)" stroke-width="1.5"></path><path d="M1456.67 -69.82L1456.67 -69.82" stroke="rgba(170, 31, 31, 1)" stroke-width="1.5"></path><path d="M1456.67 -69.82L1552.5 -81.72" stroke="rgba(170, 31, 31, 1)" stroke-width="1.5"></path><path d="M1456.67 -69.82L1389.15 102.11" stroke="rgba(170, 31, 31, 1)" stroke-width="1.5"></path><path d="M1456.67 -69.82L1609.4 84.56" stroke="rgba(170, 31, 31, 1)" stroke-width="1.5"></path><path d="M1456.67 -69.82L1250.53 70.29" stroke="rgba(170, 31, 31, 1)" stroke-width="1.5"></path><path d="M1456.67 -69.82L1601.99 208.16" stroke="rgba(170, 31, 31, 1)" stroke-width="1.5"></path><path d="M1389.15 102.11L1389.15 102.11" stroke="rgba(170, 31, 31, 1)" stroke-width="1.5"></path><path d="M1389.15 102.11L1609.4 84.56" stroke="rgba(170, 31, 31, 1)" stroke-width="1.5"></path><path d="M1389.15 102.11L1601.99 208.16" stroke="rgba(170, 31, 31, 1)" stroke-width="1.5"></path><path d="M1389.15 102.11L1150.39 77.92" stroke="rgba(170, 31, 31, 1)" stroke-width="1.5"></path><path d="M1387.89 405.36L1387.89 405.36" stroke="rgba(170, 31, 31, 1)" stroke-width="1.5"></path><path d="M1387.89 405.36L1428.8 521.27" stroke="rgba(170, 31, 31, 1)" stroke-width="1.5"></path><path d="M1428.8 521.27L1428.8 521.27" stroke="rgba(170, 31, 31, 1)" stroke-width="1.5"></path><path d="M1428.8 521.27L1542.62 537.96" stroke="rgba(170, 31, 31, 1)" stroke-width="1.5"></path><path d="M1428.8 521.27L1456.37 690.84" stroke="rgba(170, 31, 31, 1)" stroke-width="1.5"></path><path d="M1456.37 690.84L1456.37 690.84" stroke="rgba(170, 31, 31, 1)" stroke-width="1.5"></path><path d="M1552.5 -81.72L1552.5 -81.72" stroke="rgba(170, 31, 31, 1)" stroke-width="1.5"></path><path d="M1552.5 -81.72L1609.4 84.56" stroke="rgba(170, 31, 31, 1)" stroke-width="1.5"></path><path d="M1552.5 -81.72L1389.15 102.11" stroke="rgba(170, 31, 31, 1)" stroke-width="1.5"></path><path d="M1552.5 -81.72L1601.99 208.16" stroke="rgba(170, 31, 31, 1)" stroke-width="1.5"></path><path d="M1609.4 84.56L1609.4 84.56" stroke="rgba(170, 31, 31, 1)" stroke-width="1.5"></path><path d="M1609.4 84.56L1601.99 208.16" stroke="rgba(170, 31, 31, 1)" stroke-width="1.5"></path><path d="M1601.99 208.16L1601.99 208.16" stroke="rgba(170, 31, 31, 1)" stroke-width="1.5"></path><path d="M1601.99 208.16L1587.35 363.28" stroke="rgba(170, 31, 31, 1)" stroke-width="1.5"></path><path d="M1601.99 208.16L1387.89 405.36" stroke="rgba(170, 31, 31, 1)" stroke-width="1.5"></path><path d="M1587.35 363.28L1587.35 363.28" stroke="rgba(170, 31, 31, 1)" stroke-width="1.5"></path><path d="M1587.35 363.28L1542.62 537.96" stroke="rgba(170, 31, 31, 1)" stroke-width="1.5"></path><path d="M1587.35 363.28L1387.89 405.36" stroke="rgba(170, 31, 31, 1)" stroke-width="1.5"></path><path d="M1587.35 363.28L1428.8 521.27" stroke="rgba(170, 31, 31, 1)" stroke-width="1.5"></path><path d="M1587.35 363.28L1609.4 84.56" stroke="rgba(170, 31, 31, 1)" stroke-width="1.5"></path><path d="M1587.35 363.28L1389.15 102.11" stroke="rgba(170, 31, 31, 1)" stroke-width="1.5"></path><path d="M1542.62 537.96L1542.62 537.96" stroke="rgba(170, 31, 31, 1)" stroke-width="1.5"></path><path d="M1542.62 537.96L1456.37 690.84" stroke="rgba(170, 31, 31, 1)" stroke-width="1.5"></path><circle r="5" cx="-101.32" cy="368.72" fill="rgba(170, 31, 31, 1)"></circle><circle r="5" cx="-96.25" cy="530.12" fill="rgba(170, 31, 31, 1)"></circle><circle r="5" cx="-78.09" cy="666.1" fill="rgba(170, 31, 31, 1)"></circle><circle r="5" cx="80.74" cy="372.5" fill="rgba(170, 31, 31, 1)"></circle><circle r="5" cx="92.38" cy="503.59" fill="rgba(170, 31, 31, 1)"></circle><circle r="5" cx="87.95" cy="698.8" fill="rgba(170, 31, 31, 1)"></circle><circle r="5" cx="223.52" cy="343.33" fill="rgba(170, 31, 31, 1)"></circle><circle r="5" cx="204.01" cy="525.49" fill="rgba(170, 31, 31, 1)"></circle><circle r="5" cx="237.17" cy="646.13" fill="rgba(170, 31, 31, 1)"></circle><circle r="5" cx="412.19" cy="401.24" fill="rgba(170, 31, 31, 1)"></circle><circle r="5" cx="362.05" cy="521.81" fill="rgba(170, 31, 31, 1)"></circle><circle r="5" cx="355.21" cy="649.51" fill="rgba(170, 31, 31, 1)"></circle><circle r="5" cx="528.56" cy="391.21" fill="rgba(170, 31, 31, 1)"></circle><circle r="5" cx="508.57" cy="505.12" fill="rgba(170, 31, 31, 1)"></circle><circle r="5" cx="488.72" cy="696.26" fill="rgba(170, 31, 31, 1)"></circle><circle r="5" cx="688.7" cy="239.02" fill="rgba(170, 31, 31, 1)"></circle><circle r="5" cx="669.26" cy="400.05" fill="rgba(170, 31, 31, 1)"></circle><circle r="5" cx="641.29" cy="500.84" fill="rgba(170, 31, 31, 1)"></circle><circle r="5" cx="690.37" cy="711.4" fill="rgba(170, 31, 31, 1)"></circle><circle r="5" cx="854.59" cy="70.87" fill="rgba(170, 31, 31, 1)"></circle><circle r="5" cx="843.88" cy="200.6" fill="rgba(170, 31, 31, 1)"></circle><circle r="5" cx="846.8" cy="350.86" fill="rgba(170, 31, 31, 1)"></circle><circle r="5" cx="797.73" cy="487.91" fill="rgba(170, 31, 31, 1)"></circle><circle r="5" cx="817.01" cy="659.51" fill="rgba(170, 31, 31, 1)"></circle><circle r="5" cx="951.19" cy="-63.75" fill="rgba(170, 31, 31, 1)"></circle><circle r="5" cx="962.66" cy="54.84" fill="rgba(170, 31, 31, 1)"></circle><circle r="5" cx="953.74" cy="255.73" fill="rgba(170, 31, 31, 1)"></circle><circle r="5" cx="955.63" cy="389.44" fill="rgba(170, 31, 31, 1)"></circle><circle r="5" cx="944.95" cy="502.29" fill="rgba(170, 31, 31, 1)"></circle><circle r="5" cx="951.72" cy="712.23" fill="rgba(170, 31, 31, 1)"></circle><circle r="5" cx="1091.78" cy="-98.95" fill="rgba(170, 31, 31, 1)"></circle><circle r="5" cx="1150.39" cy="77.92" fill="rgba(170, 31, 31, 1)"></circle><circle r="5" cx="1139.07" cy="257.65" fill="rgba(170, 31, 31, 1)"></circle><circle r="5" cx="1094.16" cy="386.79" fill="rgba(170, 31, 31, 1)"></circle><circle r="5" cx="1140.5" cy="555.08" fill="rgba(170, 31, 31, 1)"></circle><circle r="5" cx="1112.71" cy="692.2" fill="rgba(170, 31, 31, 1)"></circle><circle r="5" cx="1250.53" cy="70.29" fill="rgba(170, 31, 31, 1)"></circle><circle r="5" cx="1250.22" cy="392.25" fill="rgba(170, 31, 31, 1)"></circle><circle r="5" cx="1296.51" cy="560.77" fill="rgba(170, 31, 31, 1)"></circle><circle r="5" cx="1309.48" cy="675.7" fill="rgba(170, 31, 31, 1)"></circle><circle r="5" cx="1456.67" cy="-69.82" fill="rgba(170, 31, 31, 1)"></circle><circle r="5" cx="1389.15" cy="102.11" fill="rgba(170, 31, 31, 1)"></circle><circle r="5" cx="1387.89" cy="405.36" fill="rgba(170, 31, 31, 1)"></circle><circle r="5" cx="1428.8" cy="521.27" fill="rgba(170, 31, 31, 1)"></circle><circle r="5" cx="1456.37" cy="690.84" fill="rgba(170, 31, 31, 1)"></circle><circle r="5" cx="1552.5" cy="-81.72" fill="rgba(170, 31, 31, 1)"></circle><circle r="5" cx="1609.4" cy="84.56" fill="rgba(170, 31, 31, 1)"></circle><circle r="5" cx="1601.99" cy="208.16" fill="rgba(170, 31, 31, 1)"></circle><circle r="5" cx="1587.35" cy="363.28" fill="rgba(170, 31, 31, 1)"></circle><circle r="5" cx="1542.62" cy="537.96" fill="rgba(170, 31, 31, 1)"></circle><path d="M54.94 487.79L54.94 487.79" stroke="hsl(112.10000000000002, 73.9%, 46.9%)" stroke-width="1.5"></path><path d="M54.94 487.79L-92.81 550.4" stroke="hsl(112.10000000000002, 73.9%, 46.9%)" stroke-width="1.5"></path><path d="M54.94 487.79L94.78 667.48" stroke="hsl(112.10000000000002, 73.9%, 46.9%)" stroke-width="1.5"></path><path d="M54.94 487.79L244.16 501.61" stroke="hsl(112.10000000000002, 73.9%, 46.9%)" stroke-width="1.5"></path><path d="M54.94 487.79L241.3 641.87" stroke="hsl(112.10000000000002, 73.9%, 46.9%)" stroke-width="1.5"></path><path d="M54.94 487.79L-97.29 701.31" stroke="hsl(112.10000000000002, 73.9%, 46.9%)" stroke-width="1.5"></path><path d="M94.78 667.48L94.78 667.48" stroke="hsl(112.10000000000002, 73.9%, 46.9%)" stroke-width="1.5"></path><path d="M94.78 667.48L241.3 641.87" stroke="hsl(112.10000000000002, 73.9%, 46.9%)" stroke-width="1.5"></path><path d="M94.78 667.48L-97.29 701.31" stroke="hsl(112.10000000000002, 73.9%, 46.9%)" stroke-width="1.5"></path><path d="M241.3 641.87L241.3 641.87" stroke="hsl(112.10000000000002, 73.9%, 46.9%)" stroke-width="1.5"></path><path d="M241.3 641.87L244.16 501.61" stroke="hsl(112.10000000000002, 73.9%, 46.9%)" stroke-width="1.5"></path><path d="M241.3 641.87L405.87 647.93" stroke="hsl(112.10000000000002, 73.9%, 46.9%)" stroke-width="1.5"></path><path d="M241.3 641.87L398.91 561.88" stroke="hsl(112.10000000000002, 73.9%, 46.9%)" stroke-width="1.5"></path><path d="M405.87 647.93L405.87 647.93" stroke="hsl(112.10000000000002, 73.9%, 46.9%)" stroke-width="1.5"></path><path d="M405.87 647.93L398.91 561.88" stroke="hsl(112.10000000000002, 73.9%, 46.9%)" stroke-width="1.5"></path><path d="M405.87 647.93L531.12 670.01" stroke="hsl(112.10000000000002, 73.9%, 46.9%)" stroke-width="1.5"></path><path d="M405.87 647.93L504.52 512.37" stroke="hsl(112.10000000000002, 73.9%, 46.9%)" stroke-width="1.5"></path><path d="M1414.37 648.72L1414.37 648.72" stroke="hsl(112.10000000000002, 73.9%, 46.9%)" stroke-width="1.5"></path><path d="M1414.37 648.72L1404.8 497.89" stroke="hsl(112.10000000000002, 73.9%, 46.9%)" stroke-width="1.5"></path><path d="M1414.37 648.72L1565.99 644.98" stroke="hsl(112.10000000000002, 73.9%, 46.9%)" stroke-width="1.5"></path><path d="M1414.37 648.72L1265.29 690.33" stroke="hsl(112.10000000000002, 73.9%, 46.9%)" stroke-width="1.5"></path><path d="M1414.37 648.72L1271.82 540.97" stroke="hsl(112.10000000000002, 73.9%, 46.9%)" stroke-width="1.5"></path><path d="M1414.37 648.72L1581.52 535.73" stroke="hsl(112.10000000000002, 73.9%, 46.9%)" stroke-width="1.5"></path><path d="M1565.99 644.98L1565.99 644.98" stroke="hsl(112.10000000000002, 73.9%, 46.9%)" stroke-width="1.5"></path><path d="M1565.99 644.98L1581.52 535.73" stroke="hsl(112.10000000000002, 73.9%, 46.9%)" stroke-width="1.5"></path><path d="M1565.99 644.98L1404.8 497.89" stroke="hsl(112.10000000000002, 73.9%, 46.9%)" stroke-width="1.5"></path><path d="M-92.81 550.4L-92.81 550.4" stroke="hsl(112.10000000000002, 73.9%, 46.9%)" stroke-width="1.5"></path><path d="M-92.81 550.4L-97.29 701.31" stroke="hsl(112.10000000000002, 73.9%, 46.9%)" stroke-width="1.5"></path><path d="M-92.81 550.4L94.78 667.48" stroke="hsl(112.10000000000002, 73.9%, 46.9%)" stroke-width="1.5"></path><path d="M-92.81 550.4L244.16 501.61" stroke="hsl(112.10000000000002, 73.9%, 46.9%)" stroke-width="1.5"></path><path d="M-92.81 550.4L241.3 641.87" stroke="hsl(112.10000000000002, 73.9%, 46.9%)" stroke-width="1.5"></path><path d="M-92.81 550.4L398.91 561.88" stroke="hsl(112.10000000000002, 73.9%, 46.9%)" stroke-width="1.5"></path><path d="M-97.29 701.31L-97.29 701.31" stroke="hsl(112.10000000000002, 73.9%, 46.9%)" stroke-width="1.5"></path><path d="M-97.29 701.31L241.3 641.87" stroke="hsl(112.10000000000002, 73.9%, 46.9%)" stroke-width="1.5"></path><path d="M-97.29 701.31L244.16 501.61" stroke="hsl(112.10000000000002, 73.9%, 46.9%)" stroke-width="1.5"></path><path d="M244.16 501.61L244.16 501.61" stroke="hsl(112.10000000000002, 73.9%, 46.9%)" stroke-width="1.5"></path><path d="M244.16 501.61L398.91 561.88" stroke="hsl(112.10000000000002, 73.9%, 46.9%)" stroke-width="1.5"></path><path d="M244.16 501.61L405.87 647.93" stroke="hsl(112.10000000000002, 73.9%, 46.9%)" stroke-width="1.5"></path><path d="M398.91 561.88L398.91 561.88" stroke="hsl(112.10000000000002, 73.9%, 46.9%)" stroke-width="1.5"></path><path d="M398.91 561.88L504.52 512.37" stroke="hsl(112.10000000000002, 73.9%, 46.9%)" stroke-width="1.5"></path><path d="M504.52 512.37L504.52 512.37" stroke="hsl(112.10000000000002, 73.9%, 46.9%)" stroke-width="1.5"></path><path d="M531.12 670.01L531.12 670.01" stroke="hsl(112.10000000000002, 73.9%, 46.9%)" stroke-width="1.5"></path><path d="M531.12 670.01L504.52 512.37" stroke="hsl(112.10000000000002, 73.9%, 46.9%)" stroke-width="1.5"></path><path d="M531.12 670.01L398.91 561.88" stroke="hsl(112.10000000000002, 73.9%, 46.9%)" stroke-width="1.5"></path><path d="M700.74 497.15L700.74 497.15" stroke="hsl(112.10000000000002, 73.9%, 46.9%)" stroke-width="1.5"></path><path d="M700.74 497.15L808.19 528.21" stroke="hsl(112.10000000000002, 73.9%, 46.9%)" stroke-width="1.5"></path><path d="M818.09 380.86L818.09 380.86" stroke="hsl(112.10000000000002, 73.9%, 46.9%)" stroke-width="1.5"></path><path d="M818.09 380.86L808.19 528.21" stroke="hsl(112.10000000000002, 73.9%, 46.9%)" stroke-width="1.5"></path><path d="M818.09 380.86L700.74 497.15" stroke="hsl(112.10000000000002, 73.9%, 46.9%)" stroke-width="1.5"></path><path d="M818.09 380.86L941.19 516.22" stroke="hsl(112.10000000000002, 73.9%, 46.9%)" stroke-width="1.5"></path><path d="M808.19 528.21L808.19 528.21" stroke="hsl(112.10000000000002, 73.9%, 46.9%)" stroke-width="1.5"></path><path d="M808.19 528.21L941.19 516.22" stroke="hsl(112.10000000000002, 73.9%, 46.9%)" stroke-width="1.5"></path><path d="M808.19 528.21L849.35 705.97" stroke="hsl(112.10000000000002, 73.9%, 46.9%)" stroke-width="1.5"></path><path d="M808.19 528.21L959.59 651.99" stroke="hsl(112.10000000000002, 73.9%, 46.9%)" stroke-width="1.5"></path><path d="M808.19 528.21L1010.4 407.43" stroke="hsl(112.10000000000002, 73.9%, 46.9%)" stroke-width="1.5"></path><path d="M849.35 705.97L849.35 705.97" stroke="hsl(112.10000000000002, 73.9%, 46.9%)" stroke-width="1.5"></path><path d="M849.35 705.97L959.59 651.99" stroke="hsl(112.10000000000002, 73.9%, 46.9%)" stroke-width="1.5"></path><path d="M849.35 705.97L941.19 516.22" stroke="hsl(112.10000000000002, 73.9%, 46.9%)" stroke-width="1.5"></path><path d="M849.35 705.97L1090 642.9" stroke="hsl(112.10000000000002, 73.9%, 46.9%)" stroke-width="1.5"></path><path d="M1010.4 407.43L1010.4 407.43" stroke="hsl(112.10000000000002, 73.9%, 46.9%)" stroke-width="1.5"></path><path d="M1010.4 407.43L1111.26 345.19" stroke="hsl(112.10000000000002, 73.9%, 46.9%)" stroke-width="1.5"></path><path d="M1010.4 407.43L941.19 516.22" stroke="hsl(112.10000000000002, 73.9%, 46.9%)" stroke-width="1.5"></path><path d="M1010.4 407.43L818.09 380.86" stroke="hsl(112.10000000000002, 73.9%, 46.9%)" stroke-width="1.5"></path><path d="M1010.4 407.43L1138.68 222.76" stroke="hsl(112.10000000000002, 73.9%, 46.9%)" stroke-width="1.5"></path><path d="M1010.4 407.43L1090 642.9" stroke="hsl(112.10000000000002, 73.9%, 46.9%)" stroke-width="1.5"></path><path d="M941.19 516.22L941.19 516.22" stroke="hsl(112.10000000000002, 73.9%, 46.9%)" stroke-width="1.5"></path><path d="M941.19 516.22L959.59 651.99" stroke="hsl(112.10000000000002, 73.9%, 46.9%)" stroke-width="1.5"></path><path d="M959.59 651.99L959.59 651.99" stroke="hsl(112.10000000000002, 73.9%, 46.9%)" stroke-width="1.5"></path><path d="M959.59 651.99L1090 642.9" stroke="hsl(112.10000000000002, 73.9%, 46.9%)" stroke-width="1.5"></path><path d="M959.59 651.99L1010.4 407.43" stroke="hsl(112.10000000000002, 73.9%, 46.9%)" stroke-width="1.5"></path><path d="M1138.68 222.76L1138.68 222.76" stroke="hsl(112.10000000000002, 73.9%, 46.9%)" stroke-width="1.5"></path><path d="M1138.68 222.76L1111.26 345.19" stroke="hsl(112.10000000000002, 73.9%, 46.9%)" stroke-width="1.5"></path><path d="M1138.68 222.76L1278.06 195.97" stroke="hsl(112.10000000000002, 73.9%, 46.9%)" stroke-width="1.5"></path><path d="M1138.68 222.76L1282.44 382.75" stroke="hsl(112.10000000000002, 73.9%, 46.9%)" stroke-width="1.5"></path><path d="M1111.26 345.19L1111.26 345.19" stroke="hsl(112.10000000000002, 73.9%, 46.9%)" stroke-width="1.5"></path><path d="M1111.26 345.19L1282.44 382.75" stroke="hsl(112.10000000000002, 73.9%, 46.9%)" stroke-width="1.5"></path><path d="M1111.26 345.19L1278.06 195.97" stroke="hsl(112.10000000000002, 73.9%, 46.9%)" stroke-width="1.5"></path><path d="M1111.26 345.19L941.19 516.22" stroke="hsl(112.10000000000002, 73.9%, 46.9%)" stroke-width="1.5"></path><path d="M1111.26 345.19L1271.82 540.97" stroke="hsl(112.10000000000002, 73.9%, 46.9%)" stroke-width="1.5"></path><path d="M1090 642.9L1090 642.9" stroke="hsl(112.10000000000002, 73.9%, 46.9%)" stroke-width="1.5"></path><path d="M1090 642.9L1265.29 690.33" stroke="hsl(112.10000000000002, 73.9%, 46.9%)" stroke-width="1.5"></path><path d="M1242.67 -72.59L1242.67 -72.59" stroke="hsl(112.10000000000002, 73.9%, 46.9%)" stroke-width="1.5"></path><path d="M1242.67 -72.59L1295.99 61.25" stroke="hsl(112.10000000000002, 73.9%, 46.9%)" stroke-width="1.5"></path><path d="M1242.67 -72.59L1433.89 -68.36" stroke="hsl(112.10000000000002, 73.9%, 46.9%)" stroke-width="1.5"></path><path d="M1242.67 -72.59L1424.99 80.2" stroke="hsl(112.10000000000002, 73.9%, 46.9%)" stroke-width="1.5"></path><path d="M1242.67 -72.59L1278.06 195.97" stroke="hsl(112.10000000000002, 73.9%, 46.9%)" stroke-width="1.5"></path><path d="M1295.99 61.25L1295.99 61.25" stroke="hsl(112.10000000000002, 73.9%, 46.9%)" stroke-width="1.5"></path><path d="M1295.99 61.25L1424.99 80.2" stroke="hsl(112.10000000000002, 73.9%, 46.9%)" stroke-width="1.5"></path><path d="M1295.99 61.25L1278.06 195.97" stroke="hsl(112.10000000000002, 73.9%, 46.9%)" stroke-width="1.5"></path><path d="M1295.99 61.25L1433.89 -68.36" stroke="hsl(112.10000000000002, 73.9%, 46.9%)" stroke-width="1.5"></path><path d="M1295.99 61.25L1456.95 203.33" stroke="hsl(112.10000000000002, 73.9%, 46.9%)" stroke-width="1.5"></path><path d="M1295.99 61.25L1138.68 222.76" stroke="hsl(112.10000000000002, 73.9%, 46.9%)" stroke-width="1.5"></path><path d="M1278.06 195.97L1278.06 195.97" stroke="hsl(112.10000000000002, 73.9%, 46.9%)" stroke-width="1.5"></path><path d="M1278.06 195.97L1456.95 203.33" stroke="hsl(112.10000000000002, 73.9%, 46.9%)" stroke-width="1.5"></path><path d="M1282.44 382.75L1282.44 382.75" stroke="hsl(112.10000000000002, 73.9%, 46.9%)" stroke-width="1.5"></path><path d="M1282.44 382.75L1401.2 360.78" stroke="hsl(112.10000000000002, 73.9%, 46.9%)" stroke-width="1.5"></path><path d="M1282.44 382.75L1271.82 540.97" stroke="hsl(112.10000000000002, 73.9%, 46.9%)" stroke-width="1.5"></path><path d="M1282.44 382.75L1404.8 497.89" stroke="hsl(112.10000000000002, 73.9%, 46.9%)" stroke-width="1.5"></path><path d="M1282.44 382.75L1278.06 195.97" stroke="hsl(112.10000000000002, 73.9%, 46.9%)" stroke-width="1.5"></path><path d="M1271.82 540.97L1271.82 540.97" stroke="hsl(112.10000000000002, 73.9%, 46.9%)" stroke-width="1.5"></path><path d="M1271.82 540.97L1404.8 497.89" stroke="hsl(112.10000000000002, 73.9%, 46.9%)" stroke-width="1.5"></path><path d="M1265.29 690.33L1265.29 690.33" stroke="hsl(112.10000000000002, 73.9%, 46.9%)" stroke-width="1.5"></path><path d="M1265.29 690.33L1271.82 540.97" stroke="hsl(112.10000000000002, 73.9%, 46.9%)" stroke-width="1.5"></path><path d="M1433.89 -68.36L1433.89 -68.36" stroke="hsl(112.10000000000002, 73.9%, 46.9%)" stroke-width="1.5"></path><path d="M1433.89 -68.36L1424.99 80.2" stroke="hsl(112.10000000000002, 73.9%, 46.9%)" stroke-width="1.5"></path><path d="M1424.99 80.2L1424.99 80.2" stroke="hsl(112.10000000000002, 73.9%, 46.9%)" stroke-width="1.5"></path><path d="M1424.99 80.2L1456.95 203.33" stroke="hsl(112.10000000000002, 73.9%, 46.9%)" stroke-width="1.5"></path><path d="M1424.99 80.2L1565.74 99.66" stroke="hsl(112.10000000000002, 73.9%, 46.9%)" stroke-width="1.5"></path><path d="M1456.95 203.33L1456.95 203.33" stroke="hsl(112.10000000000002, 73.9%, 46.9%)" stroke-width="1.5"></path><path d="M1456.95 203.33L1540.73 191.01" stroke="hsl(112.10000000000002, 73.9%, 46.9%)" stroke-width="1.5"></path><path d="M1401.2 360.78L1401.2 360.78" stroke="hsl(112.10000000000002, 73.9%, 46.9%)" stroke-width="1.5"></path><path d="M1401.2 360.78L1404.8 497.89" stroke="hsl(112.10000000000002, 73.9%, 46.9%)" stroke-width="1.5"></path><path d="M1404.8 497.89L1404.8 497.89" stroke="hsl(112.10000000000002, 73.9%, 46.9%)" stroke-width="1.5"></path><path d="M1404.8 497.89L1581.52 535.73" stroke="hsl(112.10000000000002, 73.9%, 46.9%)" stroke-width="1.5"></path><path d="M1565.74 99.66L1565.74 99.66" stroke="hsl(112.10000000000002, 73.9%, 46.9%)" stroke-width="1.5"></path><path d="M1565.74 99.66L1540.73 191.01" stroke="hsl(112.10000000000002, 73.9%, 46.9%)" stroke-width="1.5"></path><path d="M1540.73 191.01L1540.73 191.01" stroke="hsl(112.10000000000002, 73.9%, 46.9%)" stroke-width="1.5"></path><path d="M1540.73 191.01L1424.99 80.2" stroke="hsl(112.10000000000002, 73.9%, 46.9%)" stroke-width="1.5"></path><path d="M1540.73 191.01L1401.2 360.78" stroke="hsl(112.10000000000002, 73.9%, 46.9%)" stroke-width="1.5"></path><path d="M1540.73 191.01L1278.06 195.97" stroke="hsl(112.10000000000002, 73.9%, 46.9%)" stroke-width="1.5"></path><path d="M1581.52 535.73L1581.52 535.73" stroke="hsl(112.10000000000002, 73.9%, 46.9%)" stroke-width="1.5"></path><path d="M1581.52 535.73L1401.2 360.78" stroke="hsl(112.10000000000002, 73.9%, 46.9%)" stroke-width="1.5"></path><path d="M1581.52 535.73L1271.82 540.97" stroke="hsl(112.10000000000002, 73.9%, 46.9%)" stroke-width="1.5"></path><path d="M1581.52 535.73L1282.44 382.75" stroke="hsl(112.10000000000002, 73.9%, 46.9%)" stroke-width="1.5"></path><circle r="25" cx="54.94" cy="487.79" fill="url(&quot;#SvgjsRadialGradient1030&quot;)"></circle><circle r="25" cx="94.78" cy="667.48" fill="url(&quot;#SvgjsRadialGradient1030&quot;)"></circle><circle r="25" cx="241.3" cy="641.87" fill="url(&quot;#SvgjsRadialGradient1030&quot;)"></circle><circle r="25" cx="405.87" cy="647.93" fill="url(&quot;#SvgjsRadialGradient1030&quot;)"></circle><circle r="25" cx="1414.37" cy="648.72" fill="url(&quot;#SvgjsRadialGradient1030&quot;)"></circle><circle r="25" cx="1565.99" cy="644.98" fill="url(&quot;#SvgjsRadialGradient1030&quot;)"></circle><circle r="5" cx="-92.81" cy="550.4" fill="#95d08c"></circle><circle r="5" cx="-97.29" cy="701.31" fill="#95d08c"></circle><circle r="5" cx="244.16" cy="501.61" fill="#95d08c"></circle><circle r="5" cx="398.91" cy="561.88" fill="#95d08c"></circle><circle r="5" cx="504.52" cy="512.37" fill="#95d08c"></circle><circle r="5" cx="531.12" cy="670.01" fill="#95d08c"></circle><circle r="5" cx="700.74" cy="497.15" fill="#95d08c"></circle><circle r="5" cx="818.09" cy="380.86" fill="#95d08c"></circle><circle r="5" cx="808.19" cy="528.21" fill="#95d08c"></circle><circle r="5" cx="849.35" cy="705.97" fill="#95d08c"></circle><circle r="5" cx="1010.4" cy="407.43" fill="#95d08c"></circle><circle r="5" cx="941.19" cy="516.22" fill="#95d08c"></circle><circle r="5" cx="959.59" cy="651.99" fill="#95d08c"></circle><circle r="5" cx="1138.68" cy="222.76" fill="#95d08c"></circle><circle r="5" cx="1111.26" cy="345.19" fill="#95d08c"></circle><circle r="5" cx="1090" cy="642.9" fill="#95d08c"></circle><circle r="5" cx="1242.67" cy="-72.59" fill="#95d08c"></circle><circle r="5" cx="1295.99" cy="61.25" fill="#95d08c"></circle><circle r="5" cx="1278.06" cy="195.97" fill="#95d08c"></circle><circle r="5" cx="1282.44" cy="382.75" fill="#95d08c"></circle><circle r="5" cx="1271.82" cy="540.97" fill="#95d08c"></circle><circle r="5" cx="1265.29" cy="690.33" fill="#95d08c"></circle><circle r="5" cx="1433.89" cy="-68.36" fill="#95d08c"></circle><circle r="5" cx="1424.99" cy="80.2" fill="#95d08c"></circle><circle r="5" cx="1456.95" cy="203.33" fill="#95d08c"></circle><circle r="5" cx="1401.2" cy="360.78" fill="#95d08c"></circle><circle r="5" cx="1404.8" cy="497.89" fill="#95d08c"></circle><circle r="5" cx="1565.74" cy="99.66" fill="#95d08c"></circle><circle r="5" cx="1540.73" cy="191.01" fill="#95d08c"></circle><circle r="5" cx="1581.52" cy="535.73" fill="#95d08c"></circle></g><defs><mask id="SvgjsMask1029"><rect width="1440" height="560" fill="#ffffff"></rect></mask><radialGradient id="SvgjsRadialGradient1030"><stop stop-color="#ffffff" offset="0.1"></stop><stop stop-color="rgba(42, 160, 24, 1)" offset="0.2"></stop><stop stop-color="rgba(42, 160, 24, 0)" offset="1"></stop></radialGradient></defs></svg>